<svg width="152" height="151" viewBox="0 0 152 151" fill="none" xmlns="http://www.w3.org/2000/svg">
<path d="M128.418 129.937C119.329 138.464 108.972 144.426 97.2142 148C95.3315 148.574 94.0474 148.298 92.7557 146.769C88.0036 141.138 84.5186 134.695 80.9654 128.323C73.8193 115.507 68.0975 102.059 64.6731 87.7554C62.0575 76.8213 60.726 65.7242 61.4457 54.4226C61.6067 51.9074 62.4836 50.9793 64.9023 50.8922C74.2436 50.557 83.583 50.1327 92.9224 49.7122C94.8732 49.6251 96.8278 49.4944 98.7635 49.252C101.205 48.9452 103.038 47.5985 103.29 45.1117C104.137 36.742 105.288 28.45 108.527 20.0728C95.5323 20.7111 83.0602 22.2888 70.679 23.6695C69.9555 22.3494 70.6601 21.5729 71.073 20.802C74.9103 13.635 79.7665 7.21811 85.4012 1.36561C86.5263 0.196998 87.5907 -0.142031 89.2196 0.153435C121.912 6.10822 146.815 31.9445 151.112 64.9193C154.408 90.2157 146.4 111.772 128.418 129.937Z" fill="#77DD76"/>
<path d="M35.2873 10.7485C44.1778 5.19528 53.5683 1.53226 63.7979 0C64.2903 1.35611 63.3282 1.90159 62.7941 2.55503C57.0079 9.64811 52.2728 17.3738 48.8257 25.8552C48.1723 27.4613 47.2139 28.2682 45.5547 28.6224C38.9882 30.0239 32.5921 32.0505 26.1847 34.0411C24.2868 34.6302 23.4099 35.6965 22.9591 37.5091C21.8928 41.7933 20.6996 46.0416 20.245 50.4585C19.9704 53.1461 20.12 53.3771 22.8209 53.2105C28.2453 52.879 33.6736 52.6233 39.0905 52.2066C41.0394 52.0551 41.7421 52.3089 41.5186 54.6158C39.8538 71.8135 42.5887 88.4372 48.3389 104.65C53.9263 120.399 62.1122 134.735 71.7509 148.303C72.2301 148.976 72.8949 149.563 73.0199 150.69C70.7641 151.406 68.5083 150.699 66.3681 150.398C48.5227 147.885 33.1149 140.398 20.6977 127.213C8.76161 114.544 1.65716 99.4983 0.293466 82.1302C-1.9964 52.9851 9.14799 29.8383 32.5448 12.4816C33.3611 11.8755 34.2683 11.3925 35.2873 10.7485Z" fill="#77DD76"/>
</svg>
