<svg width="62" height="33" viewBox="0 0 62 33" fill="none" xmlns="http://www.w3.org/2000/svg">
<g filter="url(#filter0_d_5_2214)">
<path d="M5.43396 21.1047H4V20.1469H7.88763V21.1047H6.45367V24.8563H5.43396V21.1047Z" fill="white"/>
<path d="M9.17819 20.1469H12.7153V21.0728H10.2138V22.0306H12.4285V22.9566H10.2138V23.9463H12.7631V24.8723H9.17819C9.17819 24.8563 9.17819 20.1469 9.17819 20.1469Z" fill="white"/>
<path d="M13.974 22.5255C13.974 21.1686 14.9778 20.083 16.4277 20.083C17.3199 20.083 17.8457 20.3704 18.2759 20.8174L17.6227 21.5836C17.2562 21.2484 16.8898 21.0568 16.4277 21.0568C15.6311 21.0568 15.0575 21.7114 15.0575 22.5255V22.5415C15.0575 23.3557 15.6151 24.0262 16.4277 24.0262C16.9694 24.0262 17.2881 23.8027 17.6705 23.4834L18.3237 24.1539C17.8457 24.6647 17.304 25 16.3958 25C15.0097 24.9361 13.974 23.8665 13.974 22.5255Z" fill="white"/>
<path d="M19.6461 20.1469H20.6818V22.0147H22.5937V20.1469H23.6294V24.8563H22.5937V22.9725H20.6818V24.8563H19.6461V20.1469Z" fill="white"/>
<path d="M25.2386 20.1469H26.1946L28.3933 23.0523V20.1469H29.413V24.8563H28.5367L26.2583 21.871V24.8563H25.2386V20.1469Z" fill="white"/>
<path d="M30.8311 22.5255C30.8311 21.1686 31.8826 20.083 33.3325 20.083C34.7824 20.083 35.8181 21.1686 35.8181 22.5096V22.5255C35.8181 23.8665 34.7665 24.9521 33.3166 24.9521C31.8667 24.9521 30.8311 23.8506 30.8311 22.5255ZM34.7506 22.5255C34.7506 21.7114 34.161 21.0409 33.3325 21.0409C32.504 21.0409 31.9304 21.6954 31.9304 22.5096V22.5255C31.9304 23.3397 32.5199 24.0102 33.3485 24.0102C34.177 24.0102 34.7506 23.3237 34.7506 22.5255Z" fill="white"/>
<path d="M37.252 20.1469H38.2877V23.9144H40.6298V24.8563H37.252V20.1469Z" fill="white"/>
<path d="M41.4265 22.5255C41.4265 21.1686 42.478 20.083 43.9279 20.083C45.3778 20.083 46.4135 21.1686 46.4135 22.5096V22.5255C46.4135 23.8665 45.3619 24.9521 43.912 24.9521C42.4621 24.9521 41.4265 23.8506 41.4265 22.5255ZM45.346 22.5255C45.346 21.7114 44.7564 21.0409 43.9279 21.0409C43.0994 21.0409 42.5258 21.6954 42.5258 22.5096V22.5255C42.5258 23.3397 43.1153 24.0102 43.9439 24.0102C44.7724 24.0102 45.346 23.3237 45.346 22.5255Z" fill="white"/>
<path d="M47.6403 22.5255C47.6403 21.1686 48.676 20.083 50.1099 20.083C50.9544 20.083 51.4642 20.3065 51.9581 20.7216L51.3049 21.5038C50.9384 21.2005 50.6198 21.0249 50.0781 21.0249C49.3292 21.0249 48.7238 21.6954 48.7238 22.4936V22.5096C48.7238 23.3716 49.3133 24.0102 50.1418 24.0102C50.5242 24.0102 50.8588 23.9144 51.1137 23.7229V23.0524H50.0781V22.1584H52.1175V24.2018C51.6395 24.6169 50.9703 24.9521 50.1099 24.9521C48.6441 24.9361 47.6403 23.9144 47.6403 22.5255Z" fill="white"/>
<path d="M54.7305 23.0045L52.9301 20.1469H54.141L55.2563 22.0306L56.4034 20.1469H57.5825L55.7661 22.9885V24.8723H54.7305V23.0045Z" fill="white"/>
<path d="M10.2138 16.2676H9.33752V15.8046H11.6V16.2516H10.7237V18.5984H10.2138V16.2676Z" fill="white"/>
<path d="M12.4126 15.8046H14.4839V16.2516H12.9065V16.986H14.3086V17.433H12.9065V18.1833H14.4998V18.6303H12.4126V15.8046Z" fill="white"/>
<path d="M15.3761 15.8046H17.4474V16.2516H15.87V16.986H17.2721V17.433H15.87V18.1833H17.4633V18.6303H15.3761V15.8046Z" fill="white"/>
<path d="M18.3556 15.8046H18.8017L20.2994 17.7363V15.8046H20.7774V18.5984H20.3631L18.8176 16.6028V18.5984H18.3396C18.3556 18.5984 18.3556 15.8046 18.3556 15.8046Z" fill="white"/>
<path d="M21.6059 18.1992L21.8927 17.848C22.1635 18.0715 22.4185 18.2152 22.769 18.2152C23.0717 18.2152 23.2629 18.0715 23.2629 17.864V17.848C23.2629 17.6565 23.1514 17.5447 22.6415 17.417C22.052 17.2733 21.7174 17.0977 21.7174 16.5869V16.5709C21.7174 16.092 22.1157 15.7567 22.6734 15.7567C23.0877 15.7567 23.4063 15.8844 23.6772 16.1079L23.4063 16.4751C23.1514 16.2835 22.8965 16.1877 22.6415 16.1877C22.3547 16.1877 22.1954 16.3314 22.1954 16.523V16.539C22.1954 16.7465 22.3229 16.8423 22.8646 16.986C23.4541 17.1296 23.7568 17.3372 23.7568 17.8001V17.8161C23.7568 18.3429 23.3426 18.6462 22.769 18.6462C22.3388 18.6462 21.9405 18.4866 21.6059 18.1992Z" fill="white"/>
<path d="M26.1309 15.8046H28.2021V16.2516H26.6248V16.986H28.0269V17.433H26.6248V18.1833H28.2181V18.6303H26.1468L26.1309 15.8046Z" fill="white"/>
<path d="M29.9069 17.1776L28.935 15.8046H29.5086L30.2097 16.8104L30.9107 15.8046H31.4684L30.4965 17.1776L31.5162 18.5984H30.9266L30.1937 17.5447L29.4608 18.5984H28.9032L29.9069 17.1776Z" fill="white"/>
<path d="M32.3128 15.8046H33.4122C34.0654 15.8046 34.4638 16.1718 34.4638 16.7306V16.7465C34.4638 17.3691 33.9698 17.7044 33.3484 17.7044H32.7908V18.5984H32.2969L32.3128 15.8046ZM33.3644 17.2574C33.7308 17.2574 33.9698 17.0498 33.9698 16.7625V16.7465C33.9698 16.4113 33.7308 16.2516 33.3644 16.2516H32.7908V17.2574H33.3644Z" fill="white"/>
<path d="M35.2763 15.8046H35.7703V18.1514H37.2361V18.5984H35.2763V15.8046Z" fill="white"/>
<path d="M37.7619 17.2095C37.7619 16.4112 38.3674 15.7567 39.2277 15.7567C40.0881 15.7567 40.6776 16.4112 40.6776 17.1935V17.2095C40.6776 17.9917 40.0722 18.6622 39.2118 18.6622C38.3514 18.6622 37.7619 17.9917 37.7619 17.2095ZM40.1518 17.2095C40.1518 16.6507 39.7535 16.2037 39.2118 16.2037C38.6701 16.2037 38.2718 16.6507 38.2718 17.1935V17.2095C38.2718 17.7522 38.6701 18.1992 39.2118 18.1992C39.7535 18.1992 40.1518 17.7522 40.1518 17.2095Z" fill="white"/>
<path d="M41.5699 15.8046H42.8126C43.1632 15.8046 43.434 15.9164 43.6252 16.092C43.7686 16.2357 43.8483 16.4432 43.8483 16.6986V16.7146C43.8483 17.1776 43.5774 17.4489 43.1791 17.5607L43.9279 18.6143H43.3543L42.6692 17.6405H42.0478V18.6143H41.5539L41.5699 15.8046ZM42.7808 17.1935C43.1313 17.1935 43.3543 17.0019 43.3543 16.7306V16.7146C43.3543 16.4113 43.1313 16.2516 42.7808 16.2516H42.0638V17.1935H42.7808Z" fill="white"/>
<path d="M44.7724 15.8046H45.2663V18.5984H44.7724V15.8046Z" fill="white"/>
<path d="M46.3019 15.8046H46.764L48.2617 17.7363V15.8046H48.7397V18.5984H48.3254L46.7959 16.6028V18.5984H46.3179L46.3019 15.8046Z" fill="white"/>
<path d="M49.6319 17.2095C49.6319 16.4112 50.2374 15.7567 51.0659 15.7567C51.5439 15.7567 51.8466 15.8844 52.1334 16.1399L51.8147 16.507C51.5917 16.3155 51.3846 16.2037 51.034 16.2037C50.5242 16.2037 50.1258 16.6507 50.1258 17.1935V17.2095C50.1258 17.7842 50.5082 18.1992 51.0818 18.1992C51.3368 18.1992 51.5757 18.1194 51.751 17.9917V17.4649H51.034V17.0339H52.229V18.1992C51.9581 18.4387 51.5598 18.6303 51.0659 18.6303C50.2055 18.6462 49.6319 18.0236 49.6319 17.2095Z" fill="white"/>
<path d="M22.2591 12.9629H26.2742L30.3371 9.29117L28.712 7.21582L22.2591 12.9629Z" fill="white"/>
<path d="M32.8386 7.07217L37.9531 2.53833H33.9858L30.8311 5.33207L27.8835 2.53833H23.7568L28.8872 7.07217L35.2923 12.963H39.3074L32.8386 7.07217Z" fill="white"/>
<path d="M30.847 3.04917C31.6914 3.04917 32.3766 2.36271 32.3766 1.5166C32.3766 0.670498 31.6914 0 30.847 0C30.0026 0 29.3334 0.686462 29.3334 1.53257C29.3334 2.37867 30.0026 3.04917 30.847 3.04917Z" fill="white"/>
<path d="M39.9447 2.53833H51.0181V5.66732H47.242V12.947H43.7049V5.66732H39.9447V2.53833Z" fill="white"/>
<path d="M10.5644 2.53833H21.6378V5.66732H17.8457V12.947H14.3086V5.66732H10.5644V2.53833Z" fill="white"/>
</g>
<defs>
<filter id="filter0_d_5_2214" x="0" y="0" width="61.5825" height="33" filterUnits="userSpaceOnUse" color-interpolation-filters="sRGB">
<feFlood flood-opacity="0" result="BackgroundImageFix"/>
<feColorMatrix in="SourceAlpha" type="matrix" values="0 0 0 0 0 0 0 0 0 0 0 0 0 0 0 0 0 0 127 0" result="hardAlpha"/>
<feOffset dy="4"/>
<feGaussianBlur stdDeviation="2"/>
<feComposite in2="hardAlpha" operator="out"/>
<feColorMatrix type="matrix" values="0 0 0 0 0 0 0 0 0 0 0 0 0 0 0 0 0 0 0.1 0"/>
<feBlend mode="normal" in2="BackgroundImageFix" result="effect1_dropShadow_5_2214"/>
<feBlend mode="normal" in="SourceGraphic" in2="effect1_dropShadow_5_2214" result="shape"/>
</filter>
</defs>
</svg>
