<svg width="705" height="705" viewBox="0 0 705 705" fill="none" xmlns="http://www.w3.org/2000/svg">
<rect x="5" y="5" width="695" height="695" rx="45" stroke="white" stroke-width="10"/>
<rect x="6" y="157" width="699" height="10" fill="white"/>
<rect x="548" y="3" width="699" height="10" transform="rotate(90 548 3)" fill="white"/>
<rect x="147" y="696" width="148" height="10" transform="rotate(-90 147 696)" fill="white"/>
<rect x="157" y="558" width="148" height="10" transform="rotate(180 157 558)" fill="white"/>
<path d="M595.311 185.157C605.908 191.07 614.708 199.647 620.805 210.004C626.901 220.361 630.075 232.125 629.999 244.085V464.43C629.999 488.903 616.339 511.47 594.294 523.358L386.169 652.528C375.851 658.086 364.27 661 352.499 661C340.728 661 329.148 658.086 318.829 652.528L110.705 523.358C99.9184 517.575 90.9138 509.055 84.6327 498.688C78.3516 488.322 75.0247 476.49 75 464.43V244.055C75 219.582 88.6591 197.046 110.705 185.157L318.829 64.7602C329.453 59.0137 341.386 56 353.517 56C365.648 56 377.581 59.0137 388.204 64.7602L596.329 185.157H595.311Z" stroke="white" stroke-width="10" stroke-linecap="round" stroke-linejoin="round"/>
<path d="M215.2 401C212.373 401 210.96 399.587 210.96 396.76V302.12C210.96 299.293 212.373 297.88 215.2 297.88C217.227 297.88 218.827 298.813 220 300.68L259.84 361.56L257.92 361.8L297.76 300.68C298.88 298.813 300.56 297.88 302.8 297.88C305.307 297.88 306.56 299.293 306.56 302.12V396.76C306.56 399.587 305.173 401 302.4 401C299.573 401 298.16 399.587 298.16 396.76V310.52L300.64 311.32L263.68 367.64C262.507 369.453 260.827 370.36 258.64 370.36C256.72 370.36 255.173 369.453 254 367.64L217.04 311.32L219.36 312.2V396.76C219.36 399.587 217.973 401 215.2 401ZM360.749 321.56C360.749 318.947 362.055 317.64 364.669 317.64C367.282 317.64 368.589 318.947 368.589 321.56V379.96C368.589 382.573 367.282 383.88 364.669 383.88C362.055 383.88 360.749 382.573 360.749 379.96V321.56ZM337.149 352.6C334.535 352.6 333.229 351.293 333.229 348.68C333.229 346.067 334.535 344.76 337.149 344.76H395.549C398.162 344.76 399.469 346.067 399.469 348.68C399.469 351.293 398.162 352.6 395.549 352.6H337.149ZM337.149 352.6C334.535 352.6 333.229 351.293 333.229 348.68C333.229 346.067 334.535 344.76 337.149 344.76H395.549C398.162 344.76 399.469 346.067 399.469 348.68C399.469 351.293 398.162 352.6 395.549 352.6H337.149ZM456.596 401.08C455.316 401.08 454.276 400.707 453.476 399.96C452.73 399.213 452.356 398.2 452.356 396.92V306.2H418.356C417.076 306.2 416.036 305.827 415.236 305.08C414.49 304.333 414.116 303.32 414.116 302.04C414.116 300.76 414.49 299.747 415.236 299C416.036 298.2 417.076 297.8 418.356 297.8H494.836C496.116 297.8 497.13 298.2 497.876 299C498.623 299.747 498.996 300.76 498.996 302.04C498.996 303.32 498.623 304.333 497.876 305.08C497.13 305.827 496.116 306.2 494.836 306.2H460.756V396.92C460.756 398.147 460.356 399.16 459.556 399.96C458.81 400.707 457.823 401.08 456.596 401.08Z" fill="white"/>
</svg>
