<svg width="246" height="245" viewBox="0 0 246 245" fill="none" xmlns="http://www.w3.org/2000/svg">
<path d="M208.058 210.519C193.331 224.334 176.552 233.993 157.502 239.784C154.452 240.714 152.372 240.266 150.279 237.789C142.58 228.666 136.934 218.227 131.177 207.904C119.599 187.139 110.329 165.352 104.781 142.178C100.543 124.463 98.3857 106.484 99.5518 88.1734C99.8126 84.0983 101.233 82.5946 105.152 82.4535C120.286 81.9103 135.418 81.223 150.549 80.5417C153.71 80.4006 156.876 80.1888 160.013 79.7961C163.968 79.299 166.938 77.1172 167.346 73.0881C168.718 59.5279 170.584 46.0936 175.831 32.5211C154.777 33.5552 134.571 36.1114 114.511 38.3484C113.339 36.2096 114.481 34.9515 115.15 33.7025C121.366 22.0909 129.234 11.6945 138.363 2.21251C140.186 0.319182 141.911 -0.230098 144.55 0.248604C197.517 9.8963 237.863 51.7551 244.826 105.18C250.165 146.164 237.191 181.088 208.058 210.519Z" fill="#FFDB70"/>
<path d="M57.171 17.4143C71.575 8.41718 86.7892 2.4825 103.363 0C104.161 2.19712 102.602 3.08088 101.736 4.13955C92.3618 15.6315 84.6903 28.1483 79.1054 41.8895C78.0467 44.4917 76.494 45.7989 73.8059 46.3728C63.1671 48.6435 52.8044 51.9269 42.4233 55.152C39.3486 56.1064 37.9278 57.834 37.1975 60.7707C35.4698 67.7119 33.5366 74.5947 32.8002 81.7507C32.3552 86.1051 32.5976 86.4794 36.9735 86.2094C45.7619 85.6724 54.5566 85.2581 63.3328 84.583C66.4904 84.3376 67.6288 84.7488 67.2667 88.4863C64.5694 116.349 69.0005 143.282 78.3168 169.55C87.3692 195.065 100.632 218.291 116.248 240.275C117.024 241.364 118.101 242.316 118.304 244.141C114.649 245.301 110.994 244.157 107.527 243.669C78.6144 239.597 53.6513 227.467 33.5335 206.106C14.1952 185.58 2.68486 161.203 0.475461 133.064C-3.23448 85.8442 14.8212 48.3428 52.7277 20.2221C54.0502 19.2402 55.5201 18.4577 57.171 17.4143Z" fill="#FFDB70"/>
</svg>
