<svg width="659" height="485" viewBox="0 0 659 485" fill="none" xmlns="http://www.w3.org/2000/svg">
<g clip-path="url(#clip0_151_26)">
<path d="M654.401 469.628C654.401 476.695 649.209 481.438 643.062 481.438V481.394C636.742 481.438 631.645 476.695 631.645 469.63C631.645 462.567 636.742 457.837 643.062 457.837C649.211 457.835 654.401 462.565 654.401 469.628ZM659 469.628C659 459.929 651.462 454.299 643.062 454.299C634.604 454.299 627.066 459.929 627.066 469.628C627.066 479.32 634.606 484.972 643.062 484.972C651.462 484.972 659 479.32 659 469.628ZM640.418 470.925H642.125L646.079 477.864H650.42L646.04 470.632C648.303 470.471 650.165 469.396 650.165 466.351C650.165 462.565 647.553 461.351 643.133 461.351H636.738V477.864H640.415L640.418 470.925ZM640.418 468.129V464.154H642.976C644.367 464.154 646.263 464.267 646.263 465.963C646.263 467.807 645.282 468.129 643.642 468.129H640.418ZM551.669 385.148L571.541 439.477H531.183L551.669 385.148ZM530.388 363.993L484.594 479.952H516.929L524.172 459.46H578.366L585.221 479.952H620.326L574.19 363.978L530.388 363.993ZM438.449 479.995H471.256V363.957L438.443 363.95L438.449 479.995ZM210.694 363.95L183.322 455.918L157.102 363.957L121.703 363.95L159.151 479.995H206.415L244.165 363.95H210.694ZM343.306 389.218H357.408C377.863 389.218 391.095 398.396 391.095 422.216C391.095 446.039 377.863 455.219 357.408 455.219H343.306V389.218ZM310.774 363.95V479.995H363.959C392.297 479.995 401.552 475.287 411.557 464.728C418.624 457.313 423.196 441.038 423.196 423.25C423.196 406.934 419.327 392.389 412.583 383.326C400.433 367.121 382.927 363.95 356.801 363.95H310.774ZM0 363.789V479.995H33.085V391.759L58.7205 391.767C67.2088 391.767 73.2595 393.882 77.3471 398.245C82.5316 403.763 84.6485 412.672 84.6485 428.97V479.995H116.708V415.79C116.708 369.967 87.4835 363.789 58.8892 363.789H0ZM257.973 363.95L257.986 479.995H290.779V363.95H257.973Z" fill="black"/>
<path d="M88.1698 132.893C88.1698 132.893 130.366 70.6733 214.617 64.2364V41.6631C121.298 49.1532 40.4876 128.143 40.4876 128.143C40.4876 128.143 86.2573 260.374 214.617 272.484V248.49C120.42 236.647 88.1698 132.893 88.1698 132.893ZM214.617 200.772V222.748C143.425 210.061 123.664 136.103 123.664 136.103C123.664 136.103 157.846 98.2594 214.617 92.1223V116.234C214.573 116.234 214.543 116.221 214.508 116.221C184.712 112.647 161.435 140.466 161.435 140.466C161.435 140.466 174.481 187.295 214.617 200.772ZM214.617 0.028244V41.6631C217.356 41.4532 220.095 41.2752 222.85 41.1815C328.943 37.6079 398.07 128.143 398.07 128.143C398.07 128.143 318.675 224.627 235.96 224.627C228.379 224.627 221.282 223.925 214.617 222.744V248.49C220.512 249.247 226.45 249.63 232.394 249.637C309.366 249.637 365.03 210.35 418.93 163.852C427.866 171.005 464.452 188.406 471.973 196.022C420.724 238.905 301.286 273.471 233.573 273.471C227.046 273.471 220.778 273.078 214.617 272.484V308.66H507.182V0.028244H214.617ZM214.617 92.1223V64.2364C217.328 64.0471 220.06 63.9028 222.85 63.8148C299.141 61.4199 349.194 129.337 349.194 129.337C349.194 129.337 295.132 204.372 237.168 204.372C228.826 204.372 221.346 203.032 214.615 200.771V116.232C244.315 119.819 250.293 132.931 268.149 162.679L307.864 129.213C307.864 129.213 278.874 91.2153 230.005 91.2153C224.691 91.2134 219.608 91.5882 214.617 92.1223Z" fill="#77B900"/>
</g>
<defs>
<clipPath id="clip0_151_26">
<rect width="659" height="485" fill="white"/>
</clipPath>
</defs>
</svg>
